<?xml version="1.0" encoding="utf-8"?>
<!-- Generator: Adobe Illustrator 24.0.0, SVG Export Plug-In . SVG Version: 6.00 Build 0)  -->
<svg version="1.1" id="Capa_1" xmlns="http://www.w3.org/2000/svg" xmlns:xlink="http://www.w3.org/1999/xlink" x="0px" y="0px"
	 viewBox="0 0 100 100" style="enable-background:new 0 0 100 100;" xml:space="preserve">
<style type="text/css">
	.st0{display:none;}
	.st1{fill:#53B5B4;}
</style>
<g id="fondo" class="st0">
</g>
<path class="st1" d="M77.7,37.4V28H22.4v9.4c-0.4,0.6-0.7,1.3-0.7,2.1c0,1.9,1.5,3.5,3.5,3.5s3.5-1.5,3.5-3.5c0-0.7-0.2-1.5-0.7-2.1
	v-3.8h11.4L28.9,61.7L56.1,46l-7.1,30.3c-0.8,0.7-1.2,1.6-1.2,2.6c0,1.9,1.5,3.4,3.5,3.4s3.5-1.5,3.5-3.4c0-0.5-0.1-0.9-0.3-1.4
	l10-42.7L39.7,49l5.6-15.5h26.8v3.8c-0.4,0.6-0.7,1.3-0.7,2.1c0,1.9,1.5,3.5,3.5,3.5s3.5-1.5,3.5-3.4C78.4,38.7,78.2,38,77.7,37.4z"
	/>
</svg>
