<?xml version="1.0" encoding="utf-8"?>
<!-- Generator: Adobe Illustrator 24.0.0, SVG Export Plug-In . SVG Version: 6.00 Build 0)  -->
<svg version="1.1" id="Capa_1" xmlns="http://www.w3.org/2000/svg" xmlns:xlink="http://www.w3.org/1999/xlink" x="0px" y="0px"
	 viewBox="0 0 100 100" enable-background="new 0 0 100 100" xml:space="preserve">
<g id="fondo" display="none">
</g>
<g id="fondo_1_" display="none">
</g>
<path fill="#666666" d="M78.5,37.7V27.2h-57v10.5c-0.4,0.7-1.1,1.7-1.1,2.7c0,2.6,2,4.6,4.6,4.6s4.6-2,4.6-4.6c0-0.9-0.5-2-1.1-2.7
	v-3.3h11.1L27.5,66.6l27.4-15.8l-6.6,25.8c-0.8,0.8-1.6,2-1.6,3.4c0,2.5,2,4.5,4.6,4.5s4.6-2,4.6-4.5c0-0.6-0.4-1.6-0.6-2.3
	l10.4-41.2L41,50.5l5.4-16.2h25v3.3c-0.4,0.7-1.1,1.7-1.1,2.7c0,2.6,2,4.6,4.6,4.6s4.6-2,4.6-4.5C79.6,39.4,79.1,38.4,78.5,37.7z"/>
</svg>
